<svg xmlns="http://www.w3.org/2000/svg" viewBox="0 0 39 48"><g fill="currentColor" fill-rule="evenodd"><path d="M26.9662162 42.8835165H1.00945946c-.52972973 0-.9535135.421978-.9535135.9494505v2.9010989c0 .5274726.42378377.9494506.9535135.9494506H26.9662162c.5297297 0 .9535135-.421978.9535135-.9494506V43.832967c0-.5274725-.4237838-.9494505-.9535135-.9494505z"></path><path d="M38.3024324 37.8725275c-.1059459-.210989-.2118919-.4747253-.2648648-.6857143-1.9070271-4.6945055-2.012973-8.2813187-2.012973-13.7142857v-3.1120879h.2118919c.3178378 0 .5297297-.2637363.5297297-.5274726v-1.5824175c0-.3164836-.2648648-.5274726-.5297297-.5274726h-2.8075676c-.3178378 0-.5297297.2637363-.5297297.5274726v1.5824175c0 .3164835.2648649.5274726.5297297.5274726h.2118919v3.1120879c0 4.9582417 0 9.2835165 2.1718919 14.610989.1059459.2637362.2118919.4747253.3178378.7384615.4237838 1.0549451.3708109 2.0043956-.2648648 2.6901099-.5297298.5802198-1.2713514.8439561-2.065946.6857143-1.6421621-.421978-2.8075675-2.6901099-3.1783783-5.9604396-.2118919-1.6879121-1.0594595-3.2175824-2.3837838-4.2725274-.6356757-.5274726-1.3772973-.8967033-2.1718919-1.1076923V4.53626374c0-2.42637363-1.96-4.37802198-4.3967568-4.37802198H6.30675676C3.87.15824176 1.91 2.1098901 1.91 4.53626374V41.4065934h24.1027027V33.389011c.2118919.1054945.4767568.2637363.6886487.421978.8475675.6857143 1.3772972 1.6351648 1.4832432 2.6901099.6356757 5.8021978 3.2313513 7.4373626 4.7145946 7.9120879.4767567.1582418.9535135.210989 1.3772973.210989 1.2183784 0 2.3837838-.5274725 3.2313513-1.4241758 1.3243244-1.3714286 1.5891892-3.3758242.7945946-5.3274725zM21.6159459 13.8197802c0 .7912088-.6356756 1.3714286-1.3772973 1.3714286H7.73702703c-.7945946 0-1.3772973-.632967-1.3772973-1.3714286V6.75164835c0-.7912088.63567568-1.37142857 1.3772973-1.37142857H20.1856757c.7945946 0 1.3772973.63296703 1.3772973 1.37142857v7.06813185h.0529729z"></path><path d="M10.1208108 7.8065934h-.31783783c-.47675675 0-.84756756.36923078-.84756756.84395605v3.42857145c0 .4747253.37081085.843956.8475676.843956h.31783783c.4767568 0 .8475676-.3692307.8475676-.843956V8.65054945c-.052973-.47472527-.4237838-.84395604-.8475676-.84395604zm4.025946 0h-.3178379c-.4767567 0-.8475675.36923078-.8475675.84395605v3.42857145c0 .4747253.3708108.843956.8475675.843956h.3178379c.4767567 0 .8475675-.3692307.8475675-.843956V8.65054945c0-.47472527-.3708108-.84395604-.8475675-.84395604zm4.0259459 0h-.3178378c-.4767568 0-.8475676.36923078-.8475676.84395605v3.42857145c0 .4747253.3708108.843956.8475676.843956h.3178378c.4767568 0 .8475676-.3692307.8475676-.843956V8.65054945c0-.47472527-.3708108-.84395604-.8475676-.84395604zm10.6475676 8.3868132c.2648648.5274725.7945946.843956 1.3243243.843956h6.0389189c.3708108 0 .6886487-.3692307.5827027-.7384615-.4237838-1.8989011-1.907027-7.01538462-6.3037838-7.4901099H27.337027v4.4835165l1.4832433 2.9010989zm1.96-2.6373626c.7945946.5802197 1.2183783 1.3186813 1.4832432 1.9516483h-1.6421621c-.2648649 0-.5827028-.1582418-.6886487-.421978l-.9535135-1.8461539c.6886486 0 1.4832432.1054945 1.8010811.3164836z"></path></g></svg>