<svg xmlns="http://www.w3.org/2000/svg" viewBox="0 0 67 54"><path fill="currentColor" fill-rule="evenodd" d="M65.9577778.51780822c-.5955556-.2958904-1.2655556-.0739726-1.5633334.51780822C61.3422222 6.95342466 58.96 6.58356164 54.94 5.99178082c-2.4566667-.369863-5.5833333-.81369863-9.3055556.2958904-2.01.59178083-3.7222222 2.0712329-5.2111111 3.77260278l-3.0522222-3.03287674H27.2466667L.29777778 33.7315068 20.4722222 53.7780822 47.4211111 27v-9.9863014l-5.36-5.3260274c1.2655556-1.479452 2.68-2.73698627 4.1688889-3.18082188 3.2011111-.96164384 5.8811111-.59178083 8.2633333-.2219178 4.1688889.6657534 8.1144445 1.25753423 11.9855556-6.21369864.2977778-.51780822.0744444-1.25753425-.5211111-1.55342466zM29.6288889 29.4410959c-.5955556-.6657534-1.6377778-1.8493151-3.7222222-2.7369863-1.8611111-.8136986-2.8288889-.2219178-3.1266667.5917808-.3722222.8876712.3722222 1.9972603 2.3822222 3.920548 2.9033334 2.6630137 3.5733334 4.8082191 2.4566667 7.3972602-1.1166667 2.5150685-3.7966667 3.920548-7.37 3.1068493l-1.2655556 2.9589042-2.8288889-1.1835617 1.1911112-2.7369863c-1.8611112-.8876712-3.4988889-2.2191781-4.3177778-3.3287671l2.3077778-2.9589041c.8933333 1.1835616 2.3822222 2.5150685 4.2433333 3.2547945 1.6377778.739726 3.0522222.5178082 3.5733333-.5917808.4466667-1.1095891-.1488889-2.1452055-2.01-3.7726028-2.6055555-2.3671233-4.0944444-4.6602739-2.9033333-7.3972602 1.1166667-2.5150685 3.7222222-3.7726028 6.9977778-3.0328768l1.1911111-2.7369863 2.8288889 1.1835617-1.0422223 2.5150685c1.8611112.8876712 2.9777778 1.8493151 3.7966667 2.7369863l-2.3822222 2.8109589zm11.0177778-15.7561644c1.8611111 1.8493151 1.8611111 4.8821918 0 6.6575343-.9677778.8876712-2.1588889 1.4054794-3.35 1.4054794s-2.4566667-.4438356-3.35-1.4054794c-1.8611111-1.8493151-1.8611111-4.8082192 0-6.6575343.8933333-.8876712 2.1588889-1.4054794 3.35-1.4054794.4466666 0 .8188889.0739726 1.1911111.1479452-.5211111.8136986-.9677778 1.5534246-1.34 2.219178-.5955556 0-1.1166667.2219179-1.5633334.6657535-.4466666.4438356-.67 1.0356164-.67 1.7013698 0 .6657535.2233334 1.2575343.67 1.7013699.4466667.4438356 1.0422223.6657534 1.7122223.6657534.67 0 1.2655555-.2219178 1.7122222-.6657534.4466667-.4438356.67-1.0356164.67-1.7013699 0-.4438356-.1488889-.8876712-.3722222-1.2575342.3722222-.5917808.8188889-1.3315069 1.34-2.0712329z"></path></svg>