<svg version="1.1" xmlns="http://www.w3.org/2000/svg" xmlns:xlink="http://www.w3.org/1999/xlink" viewBox="0, 0, 140,50" preserveAspectRatio="xMidYMid meet"><g fill="#666"><style type="text/css">
  #path1{fill:#FFFFFF;}
  #path2{fill:#FFFFFF;}
  #path3{fill:#FFFFFF;}
  #path4{fill:#FFFFFF;}
  #path5{fill:#FFFFFF;}
  #path6{fill:#FFFFFF;}
  #path7{fill:#FFFFFF;}
  #path8{fill:#FFFFFF;}
</style><path id="path0" d="M91.16,35.54
		c0-2,1.6-3.59,3.59-3.59c2,0,3.59,1.6,3.59,3.59c0.08,1.92-1.6,3.59-3.59,3.59C92.76,39.13,91.16,37.54,91.16,35.54 M88.61,35.46
		c0,3.43,2.79,6.15,6.15,6.15c3.43,0,6.15-2.79,6.15-6.15c0-3.43-2.71-6.15-6.15-6.15S88.61,32.11,88.61,35.46 M38.69,35.54
		c0-2,1.6-3.59,3.59-3.59c2,0,3.59,1.6,3.59,3.59c0,1.92-1.6,3.59-3.59,3.59C40.29,39.13,38.69,37.54,38.69,35.54 M36.38,35.46
		c0,3.43,2.79,6.15,6.15,6.15c3.43,0,6.15-2.79,6.15-6.15c0-3.43-2.72-6.15-6.15-6.15C39.09,29.31,36.38,32.11,36.38,35.46
		 M106.82,26.6c-4.55,0.32-9.18-4.31-10.46-5.75C100.51,22.2,106.42,24.68,106.82,26.6 M91,21.01c-1.2-0.08-3.27-0.24-5.91-0.48
		c0.08-0.24,0.16-0.56,0.16-0.88c0-1.04-0.64-1.84-1.36-1.84c-0.72,0-0.72,0.8-0.72,1.84v0.72c-7.35-0.64-17.89-1.52-26.59-2.4
		l-0.88-7.75h2.48c4.31,0,7.99,0.16,11.02,0.56C77.51,11.98,87.97,18.93,91,21.01 M54.59,17.81c-10.54-1.04-13.18-1.44-13.74-1.52
		c0-0.88,1.6-4.71,2.16-5.11c0.4-0.16,4.79-0.64,10.78-0.88L54.59,17.81z M39.65,18.85c0,0-1.36,2.16-4.55,2.08
		c0.16-1.36,0.48-2.64,0.88-3.75C36.78,17.33,38.85,17.89,39.65,18.85 M107.45,26.76c-0.16-3.27-11.98-6.87-13.5-7.27l-5.35-2.64
		c-0.4-0.24-8.39-5.35-18.37-7.59c-2.55-0.56-5.91-0.88-9.9-0.88c-8.15,0-16.85,1.2-20.2,1.76h-0.16
		c-1.44,0.24-6.15,6.23-5.59,15.41c-1.28,0.88-1.92,2.16-1.84,3.83c0.08,0.72,0.4,2.48,0.8,4.15c0.8,3.19,1.04,3.19,1.28,3.19h0.4
		h0.32l-0.08-0.32c-0.08-0.32-0.08-0.64-0.08-0.96c0-3.99,3.27-7.27,7.27-7.27c3.99,0,7.27,3.27,7.27,7.27c0,0.4,0,0.8-0.08,1.2
		l-0.08,0.32l38.01,0.08l-0.08-0.32c-0.08-0.4-0.16-0.88-0.16-1.28c0-3.99,3.28-7.27,7.27-7.27c3.99,0,7.27,3.27,7.27,7.27
		c0,0.56-0.08,1.04-0.16,1.6l-0.08,0.48l0.48-0.16c2-0.56,4.39-1.36,4.55-2.16c0.16-0.72-0.08-1.2-0.24-1.36
		C106.82,33.15,107.53,29.71,107.45,26.76" stroke="none" fill-rule="evenodd"></path><path id="path1" d="M54.03,26.96h-2.79v2.18h3.12v1.11h-4.48v-7.42h4.31v1.11h-2.96v1.91h2.79V26.96z" stroke="none" fill="#ffffff" fill-rule="evenodd"></path><path id="path2" d="M56.17,24.89l0.64,1.01c0.18,0.29,0.33,0.55,0.48,0.83h0.03c0.15-0.3,0.31-0.57,0.46-0.85l0.59-0.99h1.47
		l-1.79,2.57l1.83,2.78h-1.53l-0.66-1.07c-0.18-0.29-0.33-0.57-0.48-0.87H57.2c-0.15,0.31-0.31,0.57-0.48,0.87l-0.62,1.07h-1.5
		l1.86-2.73l-1.79-2.63H56.17z" stroke="none" fill="#ffffff" fill-rule="evenodd"></path><path id="path3" d="M62.85,26.85v0.93h-2.81v-0.93H62.85z" stroke="none" fill="#ffffff" fill-rule="evenodd"></path><path id="path4" d="M63.75,22.83h1.35v6.28h3.05v1.13h-4.4V22.83z" stroke="none" fill="#ffffff" fill-rule="evenodd"></path><path id="path5" d="M69.74,27.95c0.03,0.97,0.79,1.39,1.65,1.39c0.63,0,1.08-0.09,1.49-0.24l0.2,0.94
		c-0.46,0.19-1.1,0.33-1.87,0.33c-1.74,0-2.76-1.07-2.76-2.71c0-1.49,0.9-2.88,2.62-2.88c1.74,0,2.31,1.43,2.31,2.61
		c0,0.25-0.02,0.45-0.04,0.57H69.74z M72.09,27c0.01-0.5-0.21-1.31-1.11-1.31c-0.84,0-1.19,0.76-1.24,1.31H72.09z" stroke="none" fill="#ffffff" fill-rule="evenodd"></path><path id="path6" d="M77.26,30.25l-0.09-0.59h-0.03c-0.33,0.42-0.89,0.71-1.58,0.71c-1.08,0-1.68-0.78-1.68-1.6
		c0-1.35,1.2-2.04,3.18-2.02v-0.09c0-0.35-0.14-0.93-1.09-0.93c-0.53,0-1.08,0.17-1.44,0.4l-0.26-0.88c0.4-0.24,1.09-0.47,1.94-0.47
		c1.72,0,2.21,1.09,2.21,2.26v1.94c0,0.48,0.02,0.96,0.08,1.29H77.26z M77.08,27.63c-0.96-0.02-1.87,0.19-1.87,1
		c0,0.53,0.34,0.77,0.77,0.77c0.54,0,0.94-0.35,1.06-0.74c0.03-0.1,0.04-0.21,0.04-0.3V27.63z" stroke="none" fill="#ffffff" fill-rule="evenodd"></path><path id="path7" d="M79.55,29.01c0.31,0.19,0.89,0.38,1.38,0.38c0.59,0,0.86-0.24,0.86-0.59c0-0.36-0.22-0.55-0.88-0.78
		c-1.05-0.36-1.49-0.93-1.47-1.56c0-0.95,0.78-1.68,2.02-1.68c0.59,0,1.11,0.15,1.42,0.32l-0.26,0.96
		c-0.23-0.13-0.66-0.31-1.13-0.31c-0.48,0-0.75,0.23-0.75,0.56c0,0.34,0.25,0.51,0.94,0.75c0.97,0.35,1.42,0.85,1.43,1.64
		c0,0.97-0.76,1.67-2.18,1.67c-0.65,0-1.23-0.15-1.63-0.37L79.55,29.01z" stroke="none" fill="#ffffff" fill-rule="evenodd"></path><path id="path8" d="M84.95,27.95c0.03,0.97,0.79,1.39,1.65,1.39c0.63,0,1.08-0.09,1.49-0.24l0.2,0.94
		c-0.46,0.19-1.1,0.33-1.87,0.33c-1.74,0-2.76-1.07-2.76-2.71c0-1.49,0.9-2.88,2.62-2.88c1.74,0,2.31,1.43,2.31,2.61
		c0,0.25-0.02,0.45-0.04,0.57H84.95z M87.3,27c0.01-0.5-0.21-1.31-1.11-1.31c-0.84,0-1.19,0.76-1.24,1.31H87.3z" stroke="none" fill="#ffffff" fill-rule="evenodd"></path></g></svg>