<svg xmlns="http://www.w3.org/2000/svg" xmlns:xlink="http://www.w3.org/1999/xlink" width="1080" zoomAndPan="magnify" viewBox="0 0 810 809.999993" height="1080" preserveAspectRatio="xMidYMid meet" version="1.0"><defs><clipPath id="id1"><path d="M 240 334 L 788 334 L 788 669.785156 L 240 669.785156 Z M 240 334 " clip-rule="nonzero"/></clipPath><clipPath id="id2"><path d="M 0 213.785156 L 135 213.785156 L 135 504 L 0 504 Z M 0 213.785156 " clip-rule="nonzero"/></clipPath></defs><rect x="-81" width="972" fill="#ffffff" y="-80.999999" height="971.999992" fill-opacity="1"/><rect x="-81" width="972" fill="#ffffff" y="-80.999999" height="971.999992" fill-opacity="1"/><rect x="-81" width="972" fill="#ffffff" y="-80.999999" height="971.999992" fill-opacity="1"/><path fill="#004670" d="M 416.148438 467.324219 C 401.722656 467.324219 388.15625 461.707031 377.957031 451.511719 L 326.046875 399.625 C 290.265625 425.292969 252.160156 423.523438 215.257812 394.277344 C 210.140625 390.222656 209.28125 382.789062 213.335938 377.675781 C 217.394531 372.5625 224.832031 371.707031 229.949219 375.757812 C 261.152344 400.488281 289.558594 400.207031 319.347656 374.871094 C 324.035156 370.878906 331.011719 371.160156 335.367188 375.515625 L 394.679688 434.800781 C 400.414062 440.53125 408.039062 443.6875 416.148438 443.6875 C 424.257812 443.6875 431.882812 440.53125 437.617188 434.800781 C 449.457031 422.964844 449.457031 403.710938 437.617188 391.878906 L 358.804688 313.097656 C 354.1875 308.484375 354.1875 301 358.804688 296.386719 C 363.421875 291.769531 370.90625 291.769531 375.523438 296.386719 L 454.339844 375.164062 C 475.394531 396.214844 475.394531 430.464844 454.339844 451.511719 C 444.136719 461.707031 430.574219 467.324219 416.148438 467.324219 Z M 416.148438 467.324219 " fill-opacity="1" fill-rule="nonzero"/><g clip-path="url(#id1)"><path fill="#004670" d="M 775.605469 669.773438 L 252.429688 669.773438 C 245.902344 669.773438 240.609375 664.484375 240.609375 657.957031 L 240.609375 402.046875 C 240.609375 395.519531 245.902344 390.226562 252.429688 390.226562 C 258.960938 390.226562 264.253906 395.519531 264.253906 402.046875 L 264.253906 646.140625 L 763.785156 646.140625 L 763.785156 357.84375 L 408.464844 357.84375 C 401.9375 357.84375 396.644531 352.554688 396.644531 346.027344 C 396.644531 339.5 401.9375 334.207031 408.464844 334.207031 L 775.605469 334.207031 C 782.136719 334.207031 787.429688 339.5 787.429688 346.027344 L 787.429688 657.957031 C 787.429688 664.484375 782.136719 669.773438 775.605469 669.773438 Z M 775.605469 669.773438 " fill-opacity="1" fill-rule="nonzero"/></g><path fill="#004670" d="M 247.027344 506.105469 C 207.675781 506.105469 177.902344 494.441406 158.371094 471.378906 L 122.785156 471.378906 C 116.253906 471.378906 110.960938 466.085938 110.960938 459.558594 L 110.960938 257.722656 C 110.960938 251.195312 116.253906 245.90625 122.785156 245.90625 L 128.082031 245.90625 C 146.054688 245.90625 163.757812 242.859375 180.695312 236.851562 L 196.941406 231.089844 C 216.425781 224.179688 236.785156 220.675781 257.460938 220.675781 L 348.726562 220.675781 C 397.066406 220.675781 442.515625 239.492188 476.695312 273.660156 L 540.738281 337.671875 C 545.355469 342.285156 545.355469 349.769531 540.738281 354.382812 C 536.117188 358.996094 528.632812 358.996094 524.015625 354.382812 L 459.976562 290.371094 C 430.261719 260.667969 390.75 244.308594 348.726562 244.308594 L 257.460938 244.308594 C 239.488281 244.308594 221.785156 247.355469 204.847656 253.363281 L 188.601562 259.125 C 171.171875 265.308594 153.039062 268.765625 134.609375 269.421875 L 134.609375 447.742188 L 164.089844 447.742188 C 167.84375 447.742188 171.371094 449.523438 173.601562 452.542969 C 189.195312 473.667969 214.863281 483.425781 252.101562 482.398438 C 258.710938 482.21875 264.070312 487.359375 264.25 493.882812 C 264.429688 500.40625 259.289062 505.84375 252.761719 506.023438 C 250.828125 506.078125 248.914062 506.105469 247.027344 506.105469 Z M 247.027344 506.105469 " fill-opacity="1" fill-rule="nonzero"/><g clip-path="url(#id2)"><path fill="#004670" d="M 122.785156 503.488281 L 12.644531 503.488281 C 6.113281 503.488281 0.820312 498.199219 0.820312 491.671875 L 0.820312 225.613281 C 0.820312 219.085938 6.113281 213.792969 12.644531 213.792969 L 122.785156 213.792969 C 129.316406 213.792969 134.609375 219.085938 134.609375 225.613281 L 134.609375 491.671875 C 134.609375 498.199219 129.316406 503.488281 122.785156 503.488281 Z M 24.464844 479.851562 L 110.960938 479.851562 L 110.960938 237.429688 L 24.464844 237.429688 Z M 24.464844 479.851562 " fill-opacity="1" fill-rule="nonzero"/></g><path fill="#004670" d="M 512.871094 561.976562 C 479.148438 561.976562 451.714844 534.550781 451.714844 500.84375 C 451.714844 467.136719 479.148438 439.714844 512.871094 439.714844 C 546.59375 439.714844 574.03125 467.136719 574.03125 500.84375 C 574.03125 534.550781 546.59375 561.976562 512.871094 561.976562 Z M 512.871094 463.351562 C 492.1875 463.351562 475.359375 480.171875 475.359375 500.84375 C 475.359375 521.519531 492.1875 538.339844 512.871094 538.339844 C 533.558594 538.339844 550.382812 521.519531 550.382812 500.84375 C 550.382812 480.171875 533.558594 463.351562 512.871094 463.351562 Z M 512.871094 463.351562 " fill-opacity="1" fill-rule="nonzero"/><path fill="#004670" d="M 675.996094 614.730469 L 354.335938 614.730469 C 347.804688 614.730469 342.511719 609.4375 342.511719 602.910156 C 342.511719 582.351562 325.777344 565.621094 305.207031 565.621094 C 298.675781 565.621094 293.386719 560.332031 293.386719 553.804688 L 293.386719 445.59375 C 293.386719 439.066406 298.675781 433.773438 305.207031 433.773438 C 321.585938 433.773438 335.890625 423.292969 340.800781 407.695312 C 342.761719 401.46875 349.402344 398.015625 355.628906 399.972656 C 361.855469 401.929688 365.316406 408.566406 363.355469 414.792969 C 356.539062 436.441406 338.65625 452.058594 317.03125 456.273438 L 317.03125 543.136719 C 341.175781 547.898438 360.242188 566.957031 365.007812 591.09375 L 665.324219 591.09375 C 670.089844 566.957031 689.15625 547.898438 713.300781 543.136719 L 713.300781 456.257812 C 689.15625 451.496094 670.089844 432.4375 665.324219 408.304688 L 454.816406 408.304688 C 448.285156 408.304688 442.992188 403.011719 442.992188 396.484375 C 442.992188 389.960938 448.285156 384.667969 454.816406 384.667969 L 675.996094 384.667969 C 682.527344 384.667969 687.820312 389.960938 687.820312 396.484375 C 687.820312 417.046875 704.554688 433.773438 725.125 433.773438 C 731.65625 433.773438 736.949219 439.066406 736.949219 445.59375 L 736.949219 553.804688 C 736.949219 560.332031 731.65625 565.621094 725.125 565.621094 C 704.554688 565.621094 687.820312 582.351562 687.820312 602.910156 C 687.820312 609.4375 682.527344 614.730469 675.996094 614.730469 Z M 675.996094 614.730469 " fill-opacity="1" fill-rule="nonzero"/></svg>