<svg xmlns="http://www.w3.org/2000/svg" viewBox="0 0 62 54"><g fill="currentColor" fill-rule="evenodd"><path d="M24.5108956 1.21885714c-.7809136-.01753246-1.3059744.31067533-1.5695591.50142857L18.293108 6.73316885c-1.2265475-.36607792-3.5650711-.88363636-5.0270876-.964987-.1686942-.0091169-.4006488.14657142-.6431467.39342856-.2846715.28893505-1.3052715 1.69644155-1.4240603 2.41387012-.092079.55753247 1.9702078 1.41522078 3.5482016 1.98116888-1.3959446 1.5063896-2.1234384 2.0744415-2.8249252 4.2155064-.2607731.7973767-.929224.643091-1.0965124 1.3177403l-2.1072719 8.485013c-.0934847.3772987-.01616652.4614545.31981613.7847532l.02178967.021039-2.65833967 9.9009351c-.1511219.5652467.17150578 1.253922.75982686 1.3135324l7.9237078.798078c.5883211.058909 1.1625843-.1886494 1.3158149-.7574026l1.4282777-5.3165455 2.2274665.5954026.0238984.5519221c.0077318.1823376.0583401.3590649.2340632.4067532l20.7142438 5.5367533c.1771289.046987.3078669-.0799481.4062719-.2335325l.2973236-.4663636 2.2246549.5961039-1.7586372 6.5466233c-.1518248.5673507.189781 1.1599481.7598269 1.3128312l7.5940512 2.030961c.5714517.1528832 1.1625843-.1886493 1.315112-.7574026l2.6583397-9.9002337.0344417-.007013c.4519599-.1115065.5609083-.1451688.6684508-.5217662l2.4277909-8.398052c.1925926-.6683376-.4674235-.8836363-.2917004-1.688026.4540686-2.1487792.2973236-3.0401298-.1813462-5.033922 1.6321165.2868311 3.7232219.54 3.9158144.0280519.2565558-.6802597.078724-2.4082597-.0231954-2.8023896-.0871587-.3338182-.2087591-.5841818-.3605839-.6606234-1.2764529-.6437922-3.4891587-1.3443896-4.7508508-1.6508571l-1.6018922-6.681974c-.1328467-.2966494-.4231413-.84296108-1.1070558-1.2167533l-.182752-1.15994804c-.0484996-.30857143-.3901054-.6494026-.7485806-.74828572l-1.550581-.4256883c-.3591781-.09888313-.5841037.1044935-.7007839.36116882l-.379562.83174026C44.0618522 6.07184416 33.8931055 3.3508052 28.1673427 2.00851948l.0878616-.90748052c.0281157-.28542857-.065369-.56945454-.42525-.66342857L26.2737501.03296102c-.3605838-.09467533-.8294132.03506493-1.0234115.2749091l-.739443.910987zm-5.5697207 9.24802596c-1.2153012-.1486753 3.5453901-5.56129868 4.0999723-6.3018701.3514463-.46987014.5988645-.75389612 1.2701269-.6578182 7.6052975 1.6157922 20.771881 5.14823377 27.9709066 7.4779481.628386.2510649.7014868.6192467.7703703 1.2013246.1075425.918 1.5196537 7.9821819.392214 7.5038961-12.7448479-4.1152207-21.3848033-6.4961298-34.5035901-9.2234805zm31.3518199 22.3798442c1.0761285.2882337 1.7150578 1.3920779 1.4268719 2.4657662-.288186 1.0750909-1.3945389 1.7125714-2.4713703 1.4243377-1.0768314-.2875325-1.7157607-1.392078-1.4268719-2.4657663.2888889-1.0743896 1.3959446-1.7118701 2.4713703-1.4243376zm-35.2128087-9.4135325c1.0761285.2882338 1.7150578 1.3913766 1.4268719 2.4664675-.2888889 1.0736883-1.3952417 1.7104676-2.4720731 1.4236364-1.0754257-.2882338-1.714355-1.3913766-1.4268719-2.4657662.2881859-1.0743896 1.3952417-1.7118702 2.4720731-1.4243377zm-1.2638008-7.2037403c-.2699108-.1711168-.3015409-.3611688-.1391728-.6900779l.863855-1.7455324c.1630711-.3296104.5215463-.5708572.9327384-.4369091l5.3525269 1.7448311c.7310082.2363377.6164368.7644156.444931 1.2679481-.1911868.5638441-.4603947 1.5940519-.7738847 2.0527013-.6628277.9734026-1.3073802 1.159948-2.6822381.349948l-3.9987557-2.5429091zm41.1824752 11.0089871l-4.7381988.2075844c-1.5969719.0168311-2.0622868-.4677663-2.1487426-1.6403377-.0414706-.554026.242498-1.580026.359881-2.1649091.1033252-.5217662.268505-1.0358182 1.0191943-.8766234l5.5106776 1.1592468c.4238443.0890649.6129224.4775844.5883211.842961l-.1258178 1.9432987c-.0238983.3667793-.1476074.5154546-.4653148.5287793z"></path><path d="M58.9877758 53.6121818H.072727c1.73684752-5.0668831 3.58615785-10.1183376 5.39821488-15.1768052l14.20264712 1.242 7.5413343 4.4546494 31.7735554 7.614v1.8661558h-.0007029z"></path></g></svg>