<svg xmlns="http://www.w3.org/2000/svg" viewBox="0 0 54 49"><g fill="currentColor" fill-rule="evenodd"><path d="M26.41125 18.6780462l-.46575 3.2392769c.14925 0 .95475 0 1.20375-.0030154l1.3245-4.9942308c.6975-1.9373846 1.72875-3.0945384 3.0705-3.5099077-.41325-.200523-.86475-.3120923-1.36875-.3120923H21.111c-.3045 0-.59175.0497539-.864.1236308h.54825c3.46875.0030154 5.616 2.8329538 5.616 5.4563385zm-.765-6.8049693c1.767 0 3.1995-1.4398461 3.1995-3.21892305 0-1.77832308-1.4325-3.21515385-3.1995-3.21515385-1.76925 0-3.19875 1.43683077-3.19875 3.21515385 0 1.77907695 1.4295 3.21892305 3.19875 3.21892305z"></path><path d="M53.1765 16.5401385c-.3015-.0294-.5565-.0851847-.89625-.0851847-.46575 0-.882.0618154-1.3065.1176L49.512 6.29612308c-.39-2.7620923-2.748-4.8148154-5.526-4.8148154-12.96675-1.00110768-20.4375-1.5634769-33.609 0-2.77425 0-5.133 2.0527231-5.52525 4.8148154L3.387 16.5725538c-.42525-.0557846-.84075-.1176-1.30425-.1176-.33975 0-.59475.0557847-.89625.0851847C.627 17.4032923.47475 18.5808.885 19.8826923c.114.3505385.3075.6716769.483 1.0011077.501.0060308.98175.0444769 1.46175.0768923-.606 4.8231077-1.0395 6.6368615-1.19775 11.4931385-.04425 1.3689846.1905 2.7206307.6675 3.9780461v10.0389693c0 1.1631846 1.05525 2.1024769 2.35875 2.1024769H8.4225c1.30425 0 2.35875-.9392923 2.35875-2.1024769v-3.4955847c.33975.0324154.6855.0497539 1.02825.0497539h30.73275c.34275 0 .6915-.0173385 1.03125-.0497539v3.4955847c0 1.1631846 1.0605 2.1024769 2.361 2.1024769h3.765c1.3065 0 2.361-.9392923 2.361-2.1024769v-10.045c.47775-1.2604308.70875-2.6030308.66825-3.9750308v-.0060308c-.15825-4.8555231-.58875-6.664-1.1985-11.4840923.48375-.0324154.96375-.0708615 1.46175-.0768923.17625-.3294308.372-.6505692.48675-1.0011077.40725-1.3041538.25725-2.4794-.30225-3.3425538zm-46.44975.768923c.57675-4.0903692 1.482-10.53047688 1.482-10.53047688.15525-1.078 1.0845-1.8846154 2.16525-1.8846154 13.45575-1.5634769 20.361-1.00412307 33.60975 0 1.08075 0 2.01225.80963078 2.1645 1.8816 0 0 .894 6.34889228 1.47375 10.43926158.1845 1.3192307-.41025 2.5585538-1.4205 3.2807384l-.891-3.3749692c-.759-2.0934308-1.89825-3.1216769-3.52125-3.1216769h-9.0645c-1.60875 0-2.754 1.0282461-3.507 3.1216769L27.744 22.6802154c-.89925.0143231-1.7925.0120615-2.6835.0030154l.58575-4.0051846c0-2.3640616-1.9335-4.6821385-4.84875-4.6821385l-7.9275-.0030154c-2.65125 0-4.79025 2.0587539-4.79025 4.6203231l.31125 2.1379077c-1.16625-.6829846-1.86675-2.0225693-1.66425-3.4420616zM43.254 21.3134923c-.3075.0414615-.621.0889539-.9255.1326769l-.55125-2.1085077h.9555l.52125 1.9758308zm-10.506-1.9758308l-.8055 3.1774616c-.33975.0180923-.6795.0444769-1.014.0618154l.85575-3.239277h.96375zm-21.14325 2.1763539l-.249-1.9637692h.77625l.255 2.0813692c-.261-.0407077-.522-.0791539-.78225-.1176zM22.008 22.5859846c-.246-.0120615-.495-.0173384-.74175-.0324154l.36675-3.003323h.76125l-.38625 3.0357384zM8.39625 30.8926154c-.003-.0113077.012-.0233692.009-.0316616-1.5555-.4538153-2.77725-1.0576461-3.57675-1.7346-.021-.053523-.04725-.0972461-.0645-.1477538-.3405-1.0689538-.24675-2.0255846.09375-2.8208923 2.07675 1.0749846 5.39325 1.7964154 8.96175 1.8167692.1755.3301846.372.6543385.483 1.0041231.41025 1.3018923.258 2.4771385-.3015 3.3395385-.3015.0263846-.5565.0882-.89625.0882-2.3325 0-4.4415-.6769539-4.7085-1.5137231zm31.40925 4.8653231c-9.83175 2.0286-16.3065 2.199723-25.3155.0821692-.351-.0821692-.6675-.2796769-.94875-.5420154 9.372 1.2807846 17.15625 1.1601692 27.3045-.1530308-.3075.3007847-.64725.5299539-1.04025.612877zM49.59375 28.9786c-.015.0505077-.04425.0942308-.0615.1477538-.7995.6769539-2.02425 1.2807847-3.5775 1.7346-.00225.0082924.012.0173385.009.0316616-.26625.8367692-2.376 1.5137231-4.71375 1.5137231-.33975 0-.59475-.0618154-.89625-.0882-.5595-.8624-.7095-2.0376462-.29925-3.3395385.11175-.3497846.3045-.6709231.48375-1.0041231 3.5655-.0233692 6.88425-.7417846 8.95875-1.8167692.33975.7953077.4365 1.7519385.09675 2.8208923z"></path><path d="M37.26 12.9420308c1.986 0 3.59475-1.6192616 3.59475-3.61921542 0-2.00221538-1.61175-3.6162-3.59475-3.6162-1.98975 0-3.59775 1.61398462-3.59775 3.6162 0 1.99995382 1.608 3.61921542 3.59775 3.61921542zm-20.4 0c1.98975 0 3.60075-1.617 3.60075-3.61921542 0-1.9992-1.611-3.6162-3.60075-3.6162-1.989 0-3.6 1.617-3.6 3.6162 0 2.00221542 1.611 3.61921542 3.6 3.61921542z"></path></g></svg>