<svg version="1.0" xmlns="http://www.w3.org/2000/svg" viewBox="0 0 890.000000 1185.000000" preserveAspectRatio="xMidYMid meet"><g transform="translate(0.000000,1185.000000) scale(0.100000,-0.100000)" fill="currentColor" stroke="none"><path d="M7180 11844 c-217 -26 -416 -130 -547 -287 -28 -33 -552 -921 -1242
-2100 -656 -1123 -1195 -2043 -1196 -2045 -2 -2 -284 217 -627 487 -646 509
-699 546 -848 593 -65 20 -95 23 -230 23 -149 -1 -159 -2 -250 -33 -260 -90
-438 -276 -516 -539 -22 -73 -26 -108 -26 -208 0 -215 67 -392 207 -544 22
-24 415 -339 874 -700 l835 -656 -1255 -5 c-1182 -5 -1257 -6 -1309 -24 -283
-94 -479 -339 -563 -701 -20 -86 -21 -123 -24 -913 l-4 -823 -70 -66 c-215
-203 -348 -502 -379 -853 -13 -149 -13 -1210 0 -1359 24 -266 95 -479 225
-676 129 -194 305 -328 511 -387 l79 -23 3595 0 3595 0 80 23 c346 100 611
419 705 851 37 169 42 289 37 971 -5 717 -5 718 -68 925 -38 124 -91 238 -155
335 -56 86 -175 214 -246 266 l-48 36 0 771 c0 458 -4 801 -10 842 -35 243
-134 452 -284 600 -85 84 -163 134 -271 172 l-80 28 -1272 3 c-700 1 -1273 5
-1273 8 0 2 639 1098 1421 2435 782 1337 1432 2457 1444 2488 41 99 58 212 52
331 -7 131 -25 200 -81 315 -127 258 -376 421 -666 438 -47 3 -101 3 -120 1z
m256 -185 c167 -51 309 -169 382 -319 60 -122 76 -193 69 -315 -3 -61 -13
-126 -26 -165 -29 -91 -2847 -4912 -2932 -5016 -65 -80 -120 -128 -189 -168
l-45 -26 1450 0 c1583 0 1507 3 1616 -57 158 -86 289 -284 342 -518 20 -86 21
-127 24 -931 l4 -841 73 -47 c165 -104 292 -281 371 -519 64 -191 66 -239 62
-1023 -3 -668 -4 -703 -24 -784 -31 -125 -60 -204 -114 -310 -108 -211 -260
-350 -459 -417 -53 -17 -184 -18 -3590 -21 -2460 -2 -3556 1 -3604 8 -314 48
-562 338 -653 760 -16 78 -18 147 -18 820 0 674 2 742 18 818 38 173 108 338
192 457 48 68 169 186 215 210 l30 16 0 848 c0 727 2 861 16 931 53 280 201
486 414 576 43 18 96 19 1555 22 l1510 3 -51 32 c-99 62 -2003 1568 -2058
1627 -32 36 -72 95 -96 144 -89 178 -89 374 1 555 80 163 244 294 419 335 83
20 227 20 309 1 127 -30 189 -74 901 -635 555 -437 687 -536 696 -525 6 8 566
964 1245 2125 826 1414 1250 2129 1282 2165 160 180 431 255 663 184z"></path><path d="M7137 11499 c-78 -18 -151 -62 -216 -128 -59 -60 -180 -263 -1343
-2256 -704 -1204 -1283 -2193 -1287 -2197 -4 -4 -353 264 -776 597 -424 333
-788 614 -810 625 -239 115 -515 20 -632 -218 -37 -75 -38 -78 -38 -192 0
-115 1 -117 39 -194 26 -54 56 -95 95 -132 110 -105 1994 -1576 2049 -1601 81
-36 186 -49 270 -34 131 23 220 80 316 199 49 62 2849 4838 2881 4916 27 64
39 168 27 236 -23 129 -115 266 -220 327 -96 57 -244 78 -355 52z"></path><path d="M1137 5509 c-173 -41 -326 -254 -367 -509 -6 -41 -10 -390 -10 -935
l0 -870 -61 -35 c-199 -115 -346 -373 -388 -683 -7 -49 -11 -318 -11 -709 0
-518 3 -649 16 -735 47 -320 210 -577 429 -680 l60 -28 3600 0 3600 0 65 31
c224 106 389 381 430 714 13 113 13 1288 0 1400 -43 346 -228 636 -462 725
l-47 17 -3 907 -3 906 -23 75 c-56 184 -157 322 -280 382 l-67 33 -3220 2
c-1855 0 -3236 -3 -3258 -8z m1323 -1393 c0 -118 -70 -176 -212 -176 l-78 0 0
-380 0 -380 -92 0 c-110 0 -154 17 -180 70 -16 31 -18 71 -18 363 l0 327 -140
0 -140 0 0 74 c0 66 3 78 27 107 49 58 53 58 461 59 l372 0 0 -64z m1435 -137
c57 -26 75 -62 75 -147 l0 -70 -37 10 c-55 15 -130 5 -156 -21 -21 -21 -22
-30 -25 -297 l-3 -276 -87 4 c-72 2 -93 7 -120 26 -62 45 -67 63 -70 305 -4
247 4 305 51 373 75 108 248 151 372 93z m2413 -1 c56 -26 72 -60 72 -147 l0
-70 -32 10 c-79 22 -154 3 -176 -46 -8 -18 -12 -106 -12 -285 l0 -260 -77 0
c-97 0 -148 25 -178 85 -18 37 -20 60 -20 280 0 238 0 241 26 295 30 63 67
104 122 132 82 41 194 44 275 6z m-1658 -14 c112 -53 168 -130 189 -264 6 -36
11 -167 11 -292 l0 -228 -96 0 c-109 0 -153 15 -175 58 -9 19 -15 93 -19 250
l-5 224 -33 29 c-62 56 -170 29 -191 -48 -6 -22 -11 -140 -11 -275 l0 -238
-85 0 c-105 0 -153 20 -179 75 -15 31 -17 65 -14 258 3 215 4 224 29 277 36
76 77 121 147 158 83 44 121 52 252 49 105 -3 121 -6 180 -33z m883 15 c93
-31 151 -78 187 -152 54 -110 50 -216 -10 -276 -46 -46 -115 -63 -297 -75
l-162 -11 17 -28 c9 -15 36 -37 60 -49 38 -18 56 -20 155 -16 69 3 129 12 157
22 66 24 65 24 68 -18 7 -89 -54 -172 -148 -200 -239 -71 -484 25 -561 222
-33 82 -33 252 -1 333 48 121 121 196 237 244 80 33 207 35 298 4z m1394 6
c103 -31 150 -83 160 -179 9 -85 3 -91 -55 -62 -128 65 -332 56 -332 -15 0
-20 54 -39 167 -59 161 -28 233 -101 233 -238 0 -124 -59 -203 -189 -253 -44
-18 -78 -22 -161 -22 -114 -1 -169 11 -220 45 -60 41 -75 71 -79 159 l-3 79
68 -32 c60 -28 82 -33 164 -36 109 -3 143 8 148 50 4 35 -13 44 -121 62 -124
22 -138 26 -184 52 -64 37 -88 84 -88 174 0 114 48 190 155 245 86 45 241 58
337 30z m-4190 -30 c55 -32 63 -70 63 -286 0 -221 7 -250 67 -275 76 -32 148
6 164 87 4 24 8 147 9 273 l0 228 94 -4 c103 -4 133 -17 167 -71 19 -30 20
-47 17 -267 -3 -234 -3 -235 -31 -292 -83 -170 -325 -242 -556 -166 -85 28
-159 98 -192 183 -22 57 -24 74 -27 339 l-3 278 98 -4 c73 -3 106 -8 130 -23z
m-1237 -1096 c71 -15 140 -64 168 -119 17 -34 22 -61 22 -122 0 -43 -2 -78 -5
-78 -3 0 -18 11 -33 25 -40 37 -144 68 -232 69 -176 2 -286 -119 -266 -293 9
-73 38 -133 87 -175 54 -46 111 -60 215 -53 70 4 97 11 152 38 37 19 71 36 76
38 4 2 7 -33 5 -77 -4 -70 -8 -86 -34 -124 -61 -86 -208 -132 -353 -109 -318
49 -499 360 -388 667 45 123 126 214 244 273 91 46 236 63 342 40z m1700 -30
c119 -56 174 -135 174 -254 0 -56 -6 -82 -28 -127 -26 -55 -87 -118 -113 -118
-18 0 -16 -6 13 -35 14 -14 56 -91 94 -171 38 -80 79 -158 90 -174 18 -25 18
-29 4 -41 -21 -17 -163 -24 -206 -10 -52 17 -77 49 -143 184 -63 128 -84 151
-147 162 l-38 6 0 -182 0 -182 -79 5 c-86 5 -130 24 -165 71 -20 28 -21 39
-24 442 l-3 413 23 7 c74 24 177 34 328 32 154 -2 169 -4 220 -28z m4133 16
c264 -69 401 -301 342 -579 -32 -153 -112 -266 -233 -329 -87 -46 -175 -61
-311 -54 -163 8 -236 42 -277 131 -24 51 -24 52 -24 427 l0 376 43 12 c123 34
360 42 460 16z m-4815 -60 c-6 -73 -24 -107 -71 -135 -28 -18 -51 -20 -204
-20 l-173 0 0 -29 c0 -15 -3 -49 -6 -74 l-7 -47 184 -2 184 -3 0 -72 c0 -64
-3 -76 -25 -98 -32 -32 -102 -45 -238 -45 l-105 0 7 -47 c9 -71 26 -90 93
-103 61 -13 232 -7 307 10 22 5 44 7 48 4 14 -9 9 -112 -8 -153 -12 -31 -26
-45 -62 -63 -43 -21 -61 -23 -202 -23 -177 0 -241 14 -312 68 -91 70 -127 161
-135 346 -6 131 10 376 29 435 15 47 59 93 101 105 18 5 160 10 316 10 l284 1
-5 -65z m1752 3 c0 -118 -60 -167 -202 -168 l-78 0 0 -366 0 -367 -90 5 c-99
6 -129 19 -160 71 -19 30 -20 52 -20 345 l0 312 -135 0 -135 0 0 63 c0 78 24
121 83 147 39 18 68 20 390 20 l347 0 0 -62z m307 42 c64 -38 63 -34 63 -510
l0 -432 -89 4 c-101 3 -133 19 -163 79 -16 31 -18 74 -18 457 l0 422 88 0 c69
0 94 -4 119 -20z m893 -35 c0 -72 -20 -119 -62 -145 -29 -18 -50 -20 -180 -20
l-148 0 0 -85 0 -85 165 0 165 0 0 -60 c0 -125 -35 -150 -210 -150 l-120 0 0
-181 0 -181 -87 4 c-57 3 -100 11 -121 22 -60 31 -62 46 -62 438 0 203 4 368
10 389 6 19 21 46 34 58 48 45 84 50 359 51 l257 0 0 -55z m297 35 c64 -38 63
-34 63 -510 l0 -432 -89 4 c-101 3 -133 19 -163 79 -16 31 -18 74 -18 457 l0
422 88 0 c69 0 94 -4 119 -20z m946 -48 c-2 -71 -18 -103 -66 -132 -28 -18
-51 -20 -203 -20 l-171 0 -7 -52 c-12 -108 -31 -97 177 -100 l182 -3 3 -57 c2
-37 -2 -68 -13 -87 -26 -52 -64 -63 -217 -69 l-138 -5 0 -29 c0 -40 24 -94 49
-107 46 -25 316 -22 385 5 14 5 16 -4 16 -76 0 -79 -1 -83 -33 -115 -46 -46
-116 -59 -282 -52 -153 6 -218 26 -288 88 -87 76 -117 178 -117 394 0 181 17
342 41 392 43 89 62 93 404 90 l280 -2 -2 -63z m-2010 -1232 c106 -16 108 -17
89 -91 l-15 -61 -36 9 c-20 4 -65 8 -101 8 -111 -1 -179 -57 -200 -163 -20
-106 20 -201 102 -243 34 -18 54 -20 122 -17 45 3 88 8 97 12 12 5 17 -5 27
-55 6 -34 9 -65 7 -69 -10 -16 -140 -33 -211 -27 -174 13 -287 113 -313 279
-34 210 93 387 299 417 30 5 57 9 60 10 3 0 36 -4 73 -9z m1600 -11 c21 -6 40
-16 43 -24 5 -13 -22 -125 -30 -125 -2 0 -23 7 -46 15 -62 22 -132 19 -164 -6
-53 -42 -25 -79 99 -130 95 -39 160 -98 171 -154 19 -103 -21 -186 -113 -232
-52 -25 -69 -28 -153 -28 -88 0 -156 12 -188 34 -11 7 -11 18 2 65 8 32 17 60
20 63 2 3 27 -2 54 -11 32 -11 74 -16 117 -14 61 3 70 6 88 30 34 46 14 70
-105 126 -148 70 -190 125 -175 234 10 77 96 151 195 168 51 8 124 4 185 -11z
m-3967 -224 c35 -121 63 -230 63 -242 1 -43 16 -23 32 45 9 37 40 147 69 245
l53 177 83 0 c46 0 84 -3 84 -7 0 -5 -50 -158 -111 -340 l-112 -333 -93 0 -92
0 -21 63 c-140 435 -191 597 -191 606 0 8 26 11 87 9 l86 -3 63 -220z m874
160 l0 -65 -130 0 -130 0 0 -65 0 -65 125 0 125 0 0 -65 0 -65 -125 0 -125 0
0 -75 0 -74 138 -3 137 -3 0 -65 0 -65 -217 -3 -218 -2 0 340 0 340 210 0 210
0 0 -65z m270 -60 l0 -125 125 0 125 0 0 125 0 125 80 0 80 0 -2 -337 -3 -338
-77 -3 -78 -3 0 141 0 140 -125 0 -125 0 0 -140 0 -140 -80 0 -80 0 0 340 0
340 80 0 80 0 0 -125z m690 -215 l0 -340 -80 0 -80 0 0 340 0 340 80 0 80 0 0
-340z m880 70 l0 -270 135 0 135 0 0 -70 0 -70 -215 0 -215 0 0 340 0 340 80
0 80 0 0 -270z m780 205 l0 -65 -135 0 -135 0 0 -65 0 -65 125 0 125 0 0 -65
0 -65 -125 0 -125 0 0 -75 0 -75 140 0 140 0 0 -70 0 -70 -220 0 -220 0 0 340
0 340 215 0 215 0 0 -65z"></path><path d="M5325 3780 c-30 -12 -64 -53 -75 -88 l-9 -32 92 1 c138 1 167 16 153
73 -11 44 -102 71 -161 46z"></path><path d="M2913 2643 c-9 -3 -13 -34 -13 -104 l0 -99 69 0 c59 0 74 4 99 25 57
48 49 145 -14 171 -32 13 -116 18 -141 7z"></path><path d="M7100 2387 c0 -290 -1 -287 81 -287 177 0 276 159 225 360 -32 123
-105 180 -233 180 l-73 0 0 -253z"></path></g></svg>