<svg xmlns="http://www.w3.org/2000/svg" xmlns:xlink="http://www.w3.org/1999/xlink" width="1080" zoomAndPan="magnify" viewBox="0 0 810 809.999993" height="1080" preserveAspectRatio="xMidYMid meet" version="1.0"><defs><clipPath id="id1"><path d="M 16 26 L 794 26 L 794 786.609375 L 16 786.609375 Z M 16 26 " clip-rule="nonzero"/></clipPath></defs><rect x="-81" width="972" fill="#ffffff" y="-80.999999" height="971.999992" fill-opacity="1"/><rect x="-81" width="972" fill="#ffffff" y="-80.999999" height="971.999992" fill-opacity="1"/><rect x="-81" width="972" fill="#ffffff" y="-80.999999" height="971.999992" fill-opacity="1"/><g clip-path="url(#id1)"><path fill="#004670" d="M 370.355469 26.480469 C 222.410156 23.703125 83.121094 116.46875 33.957031 263.976562 C 4.753906 351.964844 11.472656 446.019531 53.078125 528.90625 C 94.621094 611.796875 166.007812 673.507812 254 702.753906 C 290.242188 714.761719 327.070312 720.503906 363.246094 720.503906 C 391.480469 720.503906 419.261719 716.953125 446.136719 710.371094 L 446.136719 676.15625 C 388.378906 692.035156 325.453125 691.648438 264.464844 671.445312 C 184.808594 644.976562 120.203125 589.074219 82.667969 514.125 C 45.066406 439.113281 38.929688 354.027344 65.355469 274.433594 C 109.15625 142.871094 232.101562 59.464844 363.765625 59.464844 C 396.582031 59.464844 429.917969 64.632812 462.675781 75.539062 C 542.332031 102.007812 606.871094 157.847656 644.472656 232.796875 C 654.679688 253.195312 662.367188 274.304688 667.925781 295.867188 L 568.304688 254.875 C 559.777344 251.386719 550.148438 255.390625 546.660156 263.78125 C 543.171875 272.238281 547.179688 281.921875 555.640625 285.40625 L 686.402344 339.179688 C 688.46875 340.019531 690.535156 340.40625 692.667969 340.40625 C 699.191406 340.40625 705.332031 336.597656 707.980469 330.207031 L 759.148438 206.070312 C 762.636719 197.613281 758.566406 187.929688 750.101562 184.445312 C 741.703125 181.023438 732.011719 185.023438 728.523438 193.480469 L 695.769531 273.011719 C 690.082031 254.292969 682.976562 235.894531 674.0625 218.011719 C 632.519531 135.1875 561.132812 73.410156 473.074219 44.167969 C 439.027344 32.871094 404.464844 27.125 370.355469 26.480469 Z M 542.589844 472.617188 C 507.769531 472.617188 479.214844 501.148438 479.214844 535.945312 L 479.214844 723.28125 C 479.214844 758.011719 507.769531 786.609375 542.589844 786.609375 L 730.074219 786.609375 C 764.832031 786.609375 793.453125 758.078125 793.453125 723.28125 L 793.453125 535.945312 C 793.453125 501.148438 764.894531 472.617188 730.074219 472.617188 Z M 542.589844 505.667969 L 730.074219 505.667969 C 746.808594 505.667969 760.375 519.222656 760.375 535.945312 L 760.375 723.28125 C 760.375 740 746.808594 753.558594 730.074219 753.558594 L 542.589844 753.558594 C 525.859375 753.558594 512.292969 740 512.292969 723.28125 L 512.292969 535.945312 C 512.292969 519.222656 525.859375 505.667969 542.589844 505.667969 Z M 714.050781 555.246094 L 624.769531 659.371094 L 570.175781 618.058594 L 550.34375 644.523438 L 628.0625 703.980469 L 738.859375 576.742188 Z M 714.050781 555.246094 " fill-opacity="1" fill-rule="nonzero"/></g></svg>