<svg xmlns="http://www.w3.org/2000/svg" xmlns:xlink="http://www.w3.org/1999/xlink" width="1080" zoomAndPan="magnify" viewBox="0 0 810 809.999993" height="1080" preserveAspectRatio="xMidYMid meet" version="1.0"><defs><clipPath id="id1"><path d="M 101.421875 21 L 654 21 L 654 789 L 101.421875 789 Z M 101.421875 21 " clip-rule="nonzero"/></clipPath><clipPath id="id2"><path d="M 461 249 L 749.421875 249 L 749.421875 729 L 461 729 Z M 461 249 " clip-rule="nonzero"/></clipPath></defs><rect x="-81" width="972" fill="#ffffff" y="-80.999999" height="971.999992" fill-opacity="1"/><rect x="-81" width="972" fill="#ffffff" y="-80.999999" height="971.999992" fill-opacity="1"/><rect x="-81" width="972" fill="#ffffff" y="-80.999999" height="971.999992" fill-opacity="1"/><path fill="#000000" d="M 442.824219 124.800781 C 448.222656 126 454.222656 131.398438 456.023438 137.398438 C 457.824219 144 464.421875 147.601562 470.421875 145.800781 C 477.023438 144 480.625 137.398438 478.824219 131.398438 C 475.222656 117.601562 463.222656 105.601562 449.421875 102 L 449.421875 93 C 449.421875 86.398438 444.023438 81 437.421875 81 C 430.824219 81 425.421875 86.398438 425.421875 93 L 425.421875 102 C 417.023438 104.398438 409.222656 108.601562 403.824219 117.601562 C 397.222656 128.398438 397.222656 142.199219 403.824219 153.601562 C 411.023438 166.800781 424.824219 171 435.023438 174 C 446.421875 177.601562 450.625 179.398438 452.421875 184.800781 C 454.824219 192.601562 444.625 196.800781 438.625 196.800781 C 430.222656 196.800781 421.222656 190.800781 418.824219 182.398438 C 417.023438 175.800781 409.824219 172.800781 403.824219 174.601562 C 397.222656 176.398438 394.222656 183.601562 396.023438 189.601562 C 399.625 201.601562 408.625 211.199219 420.625 216.601562 C 422.421875 217.199219 423.625 217.800781 425.421875 218.398438 L 425.421875 225 C 425.421875 231.601562 430.824219 237 437.421875 237 C 444.023438 237 449.421875 231.601562 449.421875 225 L 449.421875 219 C 451.824219 218.398438 454.222656 217.800781 456.625 216.601562 C 472.222656 209.398438 480.023438 193.199219 475.824219 177.601562 C 470.421875 159.601562 454.222656 154.800781 442.222656 151.199219 C 433.824219 148.800781 417.023438 142.800781 424.222656 130.800781 C 427.824219 124.800781 435.625 123.601562 442.824219 124.800781 Z M 442.824219 124.800781 " fill-opacity="1" fill-rule="nonzero"/><path fill="#000000" d="M 437.421875 369 L 197.421875 369 C 190.824219 369 185.421875 374.398438 185.421875 381 C 185.421875 387.601562 190.824219 393 197.421875 393 L 437.421875 393 Z M 437.421875 369 " fill-opacity="1" fill-rule="nonzero"/><path fill="#000000" d="M 437.421875 429 L 197.421875 429 C 190.824219 429 185.421875 434.398438 185.421875 441 C 185.421875 447.601562 190.824219 453 197.421875 453 L 437.421875 453 Z M 437.421875 429 " fill-opacity="1" fill-rule="nonzero"/><path fill="#000000" d="M 437.421875 489 L 197.421875 489 C 190.824219 489 185.421875 494.398438 185.421875 501 C 185.421875 507.601562 190.824219 513 197.421875 513 L 437.421875 513 Z M 437.421875 489 " fill-opacity="1" fill-rule="nonzero"/><path fill="#000000" d="M 437.421875 549 L 197.421875 549 C 190.824219 549 185.421875 554.398438 185.421875 561 C 185.421875 567.601562 190.824219 573 197.421875 573 L 437.421875 573 Z M 437.421875 549 " fill-opacity="1" fill-rule="nonzero"/><path fill="#000000" d="M 437.421875 609 L 197.421875 609 C 190.824219 609 185.421875 614.398438 185.421875 621 C 185.421875 627.601562 190.824219 633 197.421875 633 L 437.421875 633 Z M 437.421875 609 " fill-opacity="1" fill-rule="nonzero"/><path fill="#000000" d="M 185.421875 681 C 185.421875 687.601562 190.824219 693 197.421875 693 L 437.421875 693 L 437.421875 669 L 197.421875 669 C 190.824219 669 185.421875 674.398438 185.421875 681 Z M 185.421875 681 " fill-opacity="1" fill-rule="nonzero"/><g clip-path="url(#id1)"><path fill="#000000" d="M 618.023438 765 L 136.824219 765 C 130.222656 765 125.421875 759.601562 125.421875 753 L 125.421875 237 L 270.023438 237 C 289.824219 237 305.421875 221.398438 305.421875 201.601562 L 305.421875 45 L 618.023438 45 C 624.023438 45 628.824219 49.199219 629.421875 51.601562 L 629.421875 225 L 653.421875 225 L 653.421875 51 C 653.421875 37.199219 637.824219 21 618.023438 21 L 286.824219 21 L 104.421875 216.601562 C 102.625 219 101.421875 222.601562 101.421875 225.601562 L 101.421875 753 C 101.421875 772.800781 117.625 789 136.824219 789 L 618.023438 789 C 633.625 789 651.023438 777.601562 653.421875 753 L 629.421875 753 C 627.625 759.601562 624.625 765 618.023438 765 Z M 281.421875 63.601562 L 281.421875 202.199219 C 281.421875 208.199219 276.023438 213.601562 270.023438 213.601562 L 145.222656 213.601562 Z M 281.421875 63.601562 " fill-opacity="1" fill-rule="nonzero"/></g><g clip-path="url(#id2)"><path fill="#000000" d="M 716.421875 249 L 494.421875 249 C 476.421875 249 461.421875 264 461.421875 282 L 461.421875 695.398438 C 461.421875 714 476.421875 728.398438 494.421875 728.398438 L 716.421875 728.398438 C 734.421875 728.398438 749.421875 713.398438 749.421875 695.398438 L 749.421875 282 C 749.421875 264 734.421875 249 716.421875 249 Z M 593.421875 705 L 494.421875 705 C 489.625 705 485.421875 700.800781 485.421875 696 L 485.421875 609 L 593.421875 609 Z M 593.421875 585 L 485.421875 585 L 485.421875 477 L 593.421875 477 Z M 725.421875 696 C 725.421875 700.800781 721.222656 705 716.421875 705 L 617.421875 705 L 617.421875 609 L 725.421875 609 Z M 725.421875 585 L 617.421875 585 L 617.421875 477 L 725.421875 477 Z M 725.421875 453 L 485.421875 453 L 485.421875 282 C 485.421875 277.199219 489.625 273 494.421875 273 L 716.421875 273 C 721.222656 273 725.421875 277.199219 725.421875 282 Z M 725.421875 453 " fill-opacity="1" fill-rule="nonzero"/></g><path fill="#000000" d="M 677.421875 309 L 533.421875 309 C 520.222656 309 509.421875 319.800781 509.421875 333 L 509.421875 369 C 509.421875 382.199219 520.222656 393 533.421875 393 L 677.421875 393 C 690.625 393 701.421875 382.199219 701.421875 369 L 701.421875 333 C 701.421875 319.800781 690.625 309 677.421875 309 Z M 677.421875 369 L 533.421875 369 L 533.421875 333 L 677.421875 333 Z M 677.421875 369 " fill-opacity="1" fill-rule="nonzero"/><path fill="#000000" d="M 521.421875 543 L 557.421875 543 C 564.023438 543 569.421875 537.601562 569.421875 531 C 569.421875 524.398438 564.023438 519 557.421875 519 L 521.421875 519 C 514.824219 519 509.421875 524.398438 509.421875 531 C 509.421875 537.601562 514.824219 543 521.421875 543 Z M 521.421875 543 " fill-opacity="1" fill-rule="nonzero"/><path fill="#000000" d="M 521.421875 669 L 527.421875 669 L 527.421875 675 C 527.421875 681.601562 532.824219 687 539.421875 687 C 546.023438 687 551.421875 681.601562 551.421875 675 L 551.421875 669 L 557.421875 669 C 564.023438 669 569.421875 663.601562 569.421875 657 C 569.421875 650.398438 564.023438 645 557.421875 645 L 551.421875 645 L 551.421875 639 C 551.421875 632.398438 546.023438 627 539.421875 627 C 532.824219 627 527.421875 632.398438 527.421875 639 L 527.421875 645 L 521.421875 645 C 514.824219 645 509.421875 650.398438 509.421875 657 C 509.421875 663.601562 514.824219 669 521.421875 669 Z M 521.421875 669 " fill-opacity="1" fill-rule="nonzero"/><path fill="#000000" d="M 653.421875 651 L 689.421875 651 C 696.023438 651 701.421875 645.601562 701.421875 639 C 701.421875 632.398438 696.023438 627 689.421875 627 L 653.421875 627 C 646.824219 627 641.421875 632.398438 641.421875 639 C 641.421875 645.601562 646.824219 651 653.421875 651 Z M 653.421875 651 " fill-opacity="1" fill-rule="nonzero"/><path fill="#000000" d="M 653.421875 687 L 689.421875 687 C 696.023438 687 701.421875 681.601562 701.421875 675 C 701.421875 668.398438 696.023438 663 689.421875 663 L 653.421875 663 C 646.824219 663 641.421875 668.398438 641.421875 675 C 641.421875 681.601562 646.824219 687 653.421875 687 Z M 653.421875 687 " fill-opacity="1" fill-rule="nonzero"/><path fill="#000000" d="M 645.023438 557.398438 C 649.222656 561.601562 657.625 562.199219 661.824219 557.398438 L 671.421875 547.800781 C 671.421875 547.800781 681.023438 557.398438 681.023438 557.398438 C 685.824219 562.199219 693.625 562.199219 697.824219 557.398438 C 702.625 552.601562 702.625 545.398438 697.824219 540.601562 L 688.222656 531 L 697.824219 521.398438 C 702.625 516.601562 702.625 509.398438 697.824219 504.601562 C 693.023438 499.800781 685.824219 499.800781 681.023438 504.601562 L 671.421875 514.199219 L 661.824219 504.601562 C 657.023438 499.800781 649.824219 499.800781 645.023438 504.601562 C 640.222656 509.398438 640.222656 516.601562 645.023438 521.398438 L 654.625 531 L 645.023438 540.601562 C 640.222656 545.398438 640.222656 552.601562 645.023438 557.398438 Z M 645.023438 557.398438 " fill-opacity="1" fill-rule="nonzero"/></svg>