<svg xmlns="http://www.w3.org/2000/svg" xmlns:xlink="http://www.w3.org/1999/xlink" width="1080" zoomAndPan="magnify" viewBox="0 0 810 809.999993" height="1080" preserveAspectRatio="xMidYMid meet" version="1.0"><defs><clipPath id="id1"><path d="M 27.707031 96.089844 L 582 96.089844 L 582 477 L 27.707031 477 Z M 27.707031 96.089844 " clip-rule="nonzero"/></clipPath><clipPath id="id2"><path d="M 347 380.054688 L 782.207031 380.054688 L 782.207031 728.878906 L 347 728.878906 Z M 347 380.054688 " clip-rule="nonzero"/></clipPath></defs><rect x="-81" width="972" fill="#ffffff" y="-80.999999" height="971.999992" fill-opacity="1"/><rect x="-81" width="972" fill="#ffffff" y="-80.999999" height="971.999992" fill-opacity="1"/><rect x="-81" width="972" fill="#ffffff" y="-80.999999" height="971.999992" fill-opacity="1"/><g clip-path="url(#id1)"><path fill="#000000" d="M 364.917969 456.46875 C 345.257812 459.601562 325.050781 461.1875 304.480469 461.1875 C 268.921875 461.1875 234.441406 456.464844 202 447.15625 C 170.785156 438.199219 142.792969 425.398438 118.789062 409.113281 C 95.019531 392.980469 76.394531 374.265625 63.4375 353.484375 C 50.210938 332.265625 43.503906 309.78125 43.503906 286.652344 C 43.503906 263.523438 50.210938 241.039062 63.4375 219.820312 C 76.394531 199.039062 95.019531 180.320312 118.789062 164.191406 C 142.792969 147.90625 170.785156 135.105469 202 126.144531 C 234.441406 116.835938 268.921875 112.117188 304.480469 112.117188 C 340.039062 112.117188 374.519531 116.835938 406.957031 126.144531 C 438.171875 135.105469 466.167969 147.90625 490.167969 164.191406 C 513.945312 180.320312 532.566406 199.039062 545.519531 219.820312 C 558.746094 241.039062 565.453125 263.523438 565.453125 286.652344 C 565.453125 309.78125 558.746094 332.265625 545.519531 353.484375 C 536.605469 367.789062 524.996094 381.117188 510.875 393.296875 L 528.792969 398.386719 C 540.746094 387.054688 550.828125 374.835938 558.925781 361.84375 C 573.742188 338.082031 581.253906 312.78125 581.253906 286.652344 C 581.253906 260.523438 573.742188 235.222656 558.925781 211.460938 C 544.796875 188.792969 524.648438 168.488281 499.039062 151.113281 C 473.648438 133.886719 444.136719 120.378906 411.316406 110.957031 C 377.460938 101.242188 341.515625 96.316406 304.480469 96.316406 C 267.445312 96.316406 231.5 101.242188 197.644531 110.957031 C 164.820312 120.378906 135.308594 133.886719 109.921875 151.113281 C 84.3125 168.488281 64.164062 188.792969 50.03125 211.460938 C 35.21875 235.222656 27.707031 260.523438 27.707031 286.652344 C 27.707031 312.78125 35.21875 338.082031 50.03125 361.84375 C 64.164062 384.511719 84.3125 404.816406 109.921875 422.191406 C 135.308594 439.414062 164.820312 452.925781 197.644531 462.34375 C 231.5 472.0625 267.445312 476.988281 304.480469 476.988281 C 323.375 476.988281 341.988281 475.703125 360.183594 473.15625 L 364.917969 456.46875 " fill-opacity="1" fill-rule="nonzero"/></g><path fill="#000000" d="M 524.175781 489.105469 C 522.441406 488.476562 520.570312 488.566406 518.90625 489.34375 C 512.796875 492.214844 507.429688 496.195312 502.957031 501.175781 C 498.636719 505.984375 495.332031 511.515625 493.132812 517.617188 C 490.929688 523.71875 489.941406 530.089844 490.195312 536.546875 C 490.453125 543.238281 492.042969 549.726562 494.910156 555.835938 C 495.695312 557.503906 497.078125 558.765625 498.8125 559.390625 C 499.574219 559.667969 500.367188 559.808594 501.15625 559.808594 C 502.15625 559.808594 503.152344 559.585938 504.085938 559.148438 C 505.75 558.367188 507.011719 556.980469 507.640625 555.242188 C 508.265625 553.511719 508.175781 551.636719 507.398438 549.972656 C 503.285156 541.214844 502.828125 531.386719 506.105469 522.300781 C 509.382812 513.214844 516.011719 505.949219 524.769531 501.835938 C 528.195312 500.226562 529.6875 496.121094 528.078125 492.65625 C 527.296875 490.992188 525.910156 489.730469 524.175781 489.105469 " fill-opacity="1" fill-rule="nonzero"/><path fill="#000000" d="M 478.527344 512.34375 C 484.167969 496.710938 495.570312 484.207031 510.636719 477.132812 C 512.300781 476.347656 513.5625 474.964844 514.1875 473.230469 C 514.8125 471.496094 514.730469 469.625 513.945312 467.953125 C 513.164062 466.289062 511.777344 465.027344 510.042969 464.402344 C 508.308594 463.773438 506.433594 463.859375 504.769531 464.640625 C 495.476562 469.007812 487.308594 475.0625 480.507812 482.640625 C 473.933594 489.957031 468.902344 498.375 465.550781 507.65625 C 462.199219 516.941406 460.695312 526.636719 461.082031 536.464844 C 461.480469 546.640625 463.894531 556.515625 468.257812 565.8125 C 469.042969 567.480469 470.429688 568.742188 472.160156 569.367188 C 472.929688 569.644531 473.722656 569.78125 474.511719 569.78125 C 475.511719 569.78125 476.503906 569.5625 477.433594 569.125 C 479.101562 568.347656 480.359375 566.960938 480.988281 565.226562 C 481.613281 563.488281 481.527344 561.617188 480.746094 559.949219 C 473.675781 544.882812 472.886719 527.976562 478.527344 512.34375 " fill-opacity="1" fill-rule="nonzero"/><path fill="#000000" d="M 448.378906 501.457031 C 457.078125 477.351562 474.605469 458.09375 497.738281 447.230469 C 501.179688 445.613281 502.664062 441.496094 501.046875 438.054688 C 500.265625 436.386719 498.878906 435.128906 497.144531 434.5 C 495.417969 433.878906 493.554688 433.957031 491.902344 434.726562 L 491.871094 434.738281 C 478.46875 441.035156 466.703125 449.761719 456.894531 460.679688 C 447.421875 471.226562 440.167969 483.363281 435.335938 496.746094 C 430.507812 510.136719 428.335938 524.105469 428.894531 538.273438 C 429.464844 552.941406 432.949219 567.175781 439.242188 580.582031 C 440.023438 582.246094 441.40625 583.511719 443.144531 584.136719 C 443.910156 584.414062 444.703125 584.550781 445.492188 584.550781 C 446.492188 584.550781 447.488281 584.332031 448.414062 583.894531 C 450.082031 583.109375 451.34375 581.726562 451.96875 579.992188 C 452.597656 578.257812 452.511719 576.382812 451.726562 574.71875 C 440.867188 551.582031 439.675781 525.566406 448.378906 501.457031 " fill-opacity="1" fill-rule="nonzero"/><path fill="#000000" d="M 240.894531 264.628906 C 240.894531 278.625 231.421875 286.648438 214.90625 286.648438 C 210.492188 286.648438 207.023438 286.347656 204.339844 285.726562 L 204.339844 245.445312 C 207 244.863281 211.453125 244.519531 216.496094 244.519531 C 232.230469 244.519531 240.894531 251.660156 240.894531 264.628906 Z M 246.808594 240.921875 C 240.078125 234.867188 229.773438 231.792969 216.179688 231.792969 C 206.742188 231.792969 197.761719 232.492188 189.488281 233.871094 L 188.753906 233.996094 L 188.753906 341.511719 L 204.339844 341.511719 L 204.339844 298.796875 C 207.53125 299.4375 211.132812 299.535156 214.585938 299.535156 C 228.828125 299.535156 240.6875 295.257812 247.960938 287.5 C 253.609375 281.683594 256.476562 273.777344 256.476562 263.996094 C 256.476562 254.507812 253.039062 246.3125 246.808594 240.921875 " fill-opacity="1" fill-rule="nonzero"/><path fill="#000000" d="M 297.09375 248.644531 C 298.46875 253.996094 299.929688 259.539062 301.980469 265.546875 L 312.078125 295.234375 L 282.253906 295.234375 L 292.359375 265.375 C 293.941406 260.382812 295.460938 255.011719 297.09375 248.644531 Z M 278.804688 307.800781 L 315.535156 307.800781 L 326.980469 341.511719 L 343.617188 341.511719 L 306.660156 233.179688 L 306.460938 232.589844 L 288.511719 232.589844 L 251.511719 341.511719 L 267.679688 341.511719 L 278.804688 307.800781 " fill-opacity="1" fill-rule="nonzero"/><path fill="#000000" d="M 384.28125 341.511719 L 384.28125 295.238281 L 420.855469 232.589844 L 403.058594 232.589844 L 387.390625 262.640625 C 386.871094 263.660156 386.363281 264.65625 385.859375 265.636719 C 382.574219 272.0625 379.699219 277.6875 377.195312 283.332031 C 374.308594 276.9375 371.34375 270.816406 367.175781 262.640625 L 351.832031 232.589844 L 334.070312 232.589844 L 368.535156 295.382812 L 368.535156 341.511719 L 384.28125 341.511719 " fill-opacity="1" fill-rule="nonzero"/><g clip-path="url(#id2)"><path fill="#000000" d="M 700.292969 558.667969 L 680.953125 560.339844 C 675.347656 560.824219 670.027344 563.242188 665.972656 567.140625 C 662.902344 570.085938 660.621094 573.859375 659.402344 577.945312 L 633.386719 563.160156 C 628.246094 560.242188 622.203125 559.089844 616.363281 559.925781 C 610.441406 560.773438 604.957031 563.632812 600.917969 567.976562 C 598.144531 570.957031 596.148438 574.480469 594.976562 578.445312 C 591.871094 588.957031 595.332031 600.425781 603.792969 607.660156 L 613.035156 615.558594 C 608.203125 619.65625 604.59375 625.160156 602.773438 631.269531 C 601.4375 635.746094 602.066406 640.351562 604.332031 644.128906 L 368.550781 577.527344 C 363.371094 576.066406 360.347656 570.65625 361.8125 565.476562 L 375.117188 518.34375 L 408.121094 402.007812 C 408.832031 399.503906 410.480469 397.425781 412.761719 396.152344 C 415.042969 394.882812 417.675781 394.574219 420.183594 395.285156 L 533.992188 427.625 L 533.964844 427.714844 L 712.855469 478.242188 C 715.363281 478.953125 717.449219 480.597656 718.722656 482.871094 C 719.996094 485.148438 720.304688 487.785156 719.597656 490.296875 Z M 617.300781 635.605469 C 618.550781 631.421875 621.210938 627.933594 624.855469 625.664062 L 665.257812 660.207031 C 660.574219 661.972656 655.550781 661.519531 651.417969 658.949219 L 651.289062 658.871094 C 651.199219 658.8125 651.105469 658.753906 651.015625 658.691406 L 617.699219 636.6875 C 617.332031 636.445312 617.179688 636.023438 617.300781 635.605469 Z M 671.75 673.941406 C 672.199219 673.753906 672.578125 673.585938 672.941406 673.414062 L 675.421875 672.25 C 675.472656 672.355469 675.519531 672.460938 675.570312 672.566406 L 681.203125 685.007812 L 664.949219 688.609375 C 660.59375 689.578125 656.121094 689.164062 652.019531 687.417969 L 624.652344 675.785156 C 624.308594 675.636719 624.074219 675.296875 624.0625 674.921875 C 623.980469 671.53125 625.167969 668.195312 627.359375 665.613281 L 638.917969 668.875 L 642.789062 671.433594 C 642.851562 671.472656 642.914062 671.515625 642.972656 671.550781 L 643.421875 671.835938 C 645.988281 673.445312 648.769531 674.683594 651.6875 675.503906 C 655.359375 676.542969 659.132812 676.914062 662.90625 676.609375 C 665.414062 676.410156 667.882812 675.75 670.234375 674.652344 Z M 758.597656 584.976562 C 753.386719 576.035156 745.777344 568.792969 736.589844 564.027344 C 729.953125 560.585938 722.847656 558.578125 715.445312 558.046875 L 733.464844 494.210938 C 735.222656 487.996094 734.453125 481.46875 731.300781 475.835938 C 728.144531 470.195312 722.984375 466.125 716.769531 464.371094 L 552.144531 417.867188 L 552.164062 417.804688 L 424.125 381.421875 C 417.921875 379.65625 411.394531 380.417969 405.75 383.566406 C 400.101562 386.710938 396.023438 391.859375 394.257812 398.066406 L 362.550781 509.832031 L 362.542969 509.828125 L 361.300781 514.242188 L 358.875 522.792969 L 358.886719 522.796875 L 347.941406 561.554688 C 346.1875 567.773438 346.957031 574.300781 350.109375 579.9375 C 353.261719 585.574219 358.421875 589.644531 364.636719 591.398438 L 612.128906 661.308594 C 609.890625 665.648438 608.78125 670.441406 608.90625 675.308594 C 609.070312 681.613281 612.921875 687.28125 618.722656 689.742188 L 646.085938 701.378906 C 647.515625 701.984375 648.996094 702.503906 650.480469 702.925781 C 656.226562 704.550781 662.363281 704.71875 668.234375 703.417969 L 688.027344 699.027344 C 691.714844 705.328125 696.257812 711.089844 701.542969 716.171875 C 706.925781 721.34375 713.554688 725.148438 720.707031 727.167969 C 724.730469 728.308594 728.855469 728.878906 733.035156 728.878906 C 734.710938 728.878906 736.394531 728.785156 738.082031 728.601562 L 759.527344 725.910156 C 762.558594 725.535156 765.050781 723.386719 765.882812 720.449219 C 766.574219 718 765.996094 715.378906 764.335938 713.445312 C 762.675781 711.511719 760.171875 710.546875 757.644531 710.863281 L 736.375 713.53125 C 727.414062 714.503906 718.550781 711.480469 712.050781 705.234375 C 706.125 699.542969 701.40625 692.863281 698.015625 685.378906 L 689.378906 666.308594 C 686.757812 660.515625 682.8125 655.261719 677.976562 651.128906 L 613.644531 596.128906 C 609.726562 592.78125 608.105469 587.523438 609.519531 582.742188 C 610.019531 581.046875 610.859375 579.550781 612.019531 578.304688 C 615.542969 574.511719 621.25 573.707031 625.894531 576.347656 L 712.621094 625.636719 C 714.46875 626.691406 716.691406 626.914062 718.71875 626.25 C 720.746094 625.589844 722.40625 624.089844 723.285156 622.140625 C 724.867188 618.621094 723.40625 614.324219 719.960938 612.367188 L 702.855469 602.644531 L 689.949219 595.308594 L 673.355469 585.875 L 673.621094 583.75 C 674.183594 579.328125 677.816406 575.835938 682.257812 575.453125 L 695.886719 574.273438 L 711.203125 573.078125 C 711.28125 573.078125 711.363281 573.074219 711.445312 573.074219 C 718.027344 573.074219 724.546875 574.746094 730.382812 577.945312 C 736.6875 581.394531 741.914062 586.46875 745.496094 592.617188 L 768.003906 631.226562 C 769.03125 632.980469 770.597656 634.261719 772.425781 634.816406 C 774.472656 635.445312 776.621094 635.199219 778.46875 634.121094 C 782.078125 632.011719 783.304688 627.363281 781.199219 623.75 L 758.597656 584.976562 " fill-opacity="1" fill-rule="nonzero"/></g></svg>