<svg xmlns="http://www.w3.org/2000/svg" xmlns:xlink="http://www.w3.org/1999/xlink" width="1080" zoomAndPan="magnify" viewBox="0 0 810 809.999993" height="1080" preserveAspectRatio="xMidYMid meet" version="1.0"><defs><clipPath id="id1"><path d="M 23.445312 23.445312 L 786.195312 23.445312 L 786.195312 786.195312 L 23.445312 786.195312 Z M 23.445312 23.445312 " clip-rule="nonzero"/></clipPath></defs><rect x="-81" width="972" fill="#ffffff" y="-80.999999" height="971.999992" fill-opacity="1"/><rect x="-81" width="972" fill="#ffffff" y="-80.999999" height="971.999992" fill-opacity="1"/><rect x="-81" width="972" fill="#ffffff" y="-80.999999" height="971.999992" fill-opacity="1"/><g clip-path="url(#id1)"><path fill="#004670" d="M 472.703125 644.917969 C 468.878906 647.003906 464.210938 646.953125 460.734375 645.066406 L 422.050781 621.03125 L 514.960938 621.03125 Z M 755.40625 548.132812 L 484.074219 752.773438 C 474.390625 760.324219 461.53125 762.65625 449.3125 759.03125 L 191.089844 689.164062 C 186.324219 687.722656 181.359375 686.976562 176.34375 686.976562 C 176.242188 686.976562 176.144531 686.976562 175.996094 686.976562 L 175.996094 551.210938 L 236.328125 525.140625 C 252.320312 519.382812 269.699219 517.84375 286.632812 520.523438 L 570.332031 566.40625 C 577.433594 567.550781 582.792969 573.757812 582.792969 580.90625 C 582.792969 582.746094 582.398438 584.683594 581.703125 586.46875 C 580.957031 588.308594 579.863281 589.945312 578.625 591.1875 C 575.742188 594.019531 571.96875 595.605469 568.046875 595.605469 L 563.328125 595.605469 C 563.328125 595.605469 563.277344 595.605469 563.230469 595.605469 L 377.457031 595.605469 C 377.410156 595.605469 377.410156 595.65625 377.359375 595.65625 L 328.59375 595.507812 C 328.59375 595.507812 328.542969 595.507812 328.542969 595.507812 C 321.542969 595.507812 315.882812 601.167969 315.832031 608.171875 C 315.78125 615.222656 321.492188 620.882812 328.496094 620.933594 L 373.882812 621.082031 L 447.824219 666.964844 C 453.734375 670.242188 460.1875 671.882812 466.644531 671.882812 C 473 671.882812 479.355469 670.292969 485.117188 667.113281 C 485.167969 667.066406 485.167969 667.066406 485.167969 667.066406 L 566.707031 621.03125 L 568.046875 621.03125 C 578.625 621.03125 588.703125 616.910156 596.5 609.3125 C 599.03125 606.730469 601.070312 603.75 602.855469 600.621094 L 738.871094 523.75 C 745.921875 519.828125 754.910156 522.359375 758.933594 529.460938 C 760.175781 531.746094 760.769531 534.179688 760.769531 536.664062 C 760.769531 541.179688 758.683594 545.550781 755.40625 548.132812 Z M 150.570312 709.921875 C 150.570312 716.921875 144.859375 722.632812 137.855469 722.632812 L 61.582031 722.632812 C 54.582031 722.632812 48.871094 716.921875 48.871094 709.921875 L 48.871094 531.945312 C 48.871094 524.941406 54.582031 519.234375 61.582031 519.234375 L 137.855469 519.234375 C 144.859375 519.234375 150.570312 524.941406 150.570312 531.945312 L 150.570312 542.074219 C 150.570312 542.375 150.421875 542.621094 150.421875 542.917969 L 150.570312 701.976562 Z M 392.554688 418.675781 C 392.207031 414.304688 392.105469 410.082031 392.105469 405.714844 C 392.105469 402.585938 392.257812 399.308594 392.355469 396.328125 C 392.503906 393 392.703125 389.722656 392.953125 386.695312 C 398.613281 327.304688 428.457031 259.867188 469.226562 214.679688 C 473.148438 210.160156 477.320312 205.789062 481.988281 201.421875 L 658.175781 201.421875 C 709.671875 250.132812 748.058594 336.988281 748.058594 405.714844 C 748.058594 442.558594 736.6875 477.816406 715.28125 507.859375 L 606.53125 569.335938 C 602.210938 554.9375 590.042969 543.8125 574.402344 541.28125 L 433.175781 518.488281 C 409.339844 489.984375 395.234375 455.621094 392.554688 418.675781 Z M 468.382812 150.570312 L 671.78125 150.570312 C 678.785156 150.570312 684.496094 156.28125 684.496094 163.28125 C 684.496094 170.285156 678.785156 175.996094 671.78125 175.996094 L 468.382812 175.996094 C 461.378906 175.996094 455.667969 170.285156 455.667969 163.28125 C 455.667969 156.28125 461.378906 150.570312 468.382812 150.570312 Z M 481.9375 62.921875 C 497.582031 58.007812 531.84375 48.871094 570.082031 48.871094 C 608.46875 48.871094 642.832031 58.058594 658.226562 62.921875 L 638.460938 125.144531 L 501.703125 125.144531 Z M 781.128906 517.148438 C 774.773438 505.726562 763.648438 498.773438 751.582031 497.085938 C 765.984375 468.878906 773.480469 437.792969 773.480469 405.714844 C 773.480469 335.695312 738.921875 251.921875 689.210938 197 C 701.476562 190.644531 709.917969 177.980469 709.917969 163.28125 C 709.917969 142.226562 692.835938 125.144531 671.78125 125.144531 L 665.128906 125.144531 L 683.550781 67.195312 C 686.929688 55.773438 680.769531 43.753906 669.347656 39.78125 C 650.777344 33.675781 613.1875 23.445312 570.082031 23.445312 C 526.980469 23.445312 489.386719 33.675781 470.566406 39.832031 C 459.394531 43.753906 453.238281 55.773438 456.664062 67.492188 L 475.035156 125.144531 L 468.382812 125.144531 C 447.328125 125.144531 430.246094 142.226562 430.246094 163.28125 C 430.246094 177.980469 438.6875 190.644531 450.953125 197 C 450.703125 197.296875 450.40625 197.597656 450.15625 197.84375 C 406.160156 246.609375 373.734375 319.804688 367.625 384.558594 C 367.328125 388.136719 367.078125 391.710938 366.929688 395.285156 C 366.832031 398.664062 366.683594 402.238281 366.683594 405.714844 C 366.683594 410.777344 366.832031 415.644531 367.230469 420.613281 C 369.613281 453.683594 379.941406 484.96875 397.421875 512.675781 L 290.65625 495.445312 C 269.5 492.019531 247.75 494.054688 227.042969 501.503906 L 175.101562 523.902344 C 171.425781 506.71875 156.132812 493.808594 137.855469 493.808594 L 61.582031 493.808594 C 40.527344 493.808594 23.445312 510.890625 23.445312 531.945312 L 23.445312 709.921875 C 23.445312 730.976562 40.527344 748.058594 61.582031 748.058594 L 137.855469 748.058594 C 158.019531 748.058594 174.40625 732.265625 175.746094 712.453125 C 178.476562 712.402344 181.257812 712.75 183.988281 713.59375 L 442.363281 783.511719 C 448.371094 785.300781 454.578125 786.144531 460.683594 786.144531 C 474.640625 786.144531 488.394531 781.625 499.566406 772.9375 L 770.949219 568.246094 C 780.484375 560.695312 786.195312 548.878906 786.195312 536.664062 C 786.195312 529.957031 784.457031 523.253906 781.230469 517.246094 C 781.179688 517.246094 781.179688 517.195312 781.128906 517.148438 " fill-opacity="1" fill-rule="nonzero"/></g><path fill="#004670" d="M 112.433594 544.65625 L 87.007812 544.65625 C 80.003906 544.65625 74.292969 550.367188 74.292969 557.371094 C 74.292969 564.371094 80.003906 570.082031 87.007812 570.082031 L 112.433594 570.082031 C 119.433594 570.082031 125.144531 564.371094 125.144531 557.371094 C 125.144531 550.367188 119.433594 544.65625 112.433594 544.65625 " fill-opacity="1" fill-rule="nonzero"/><path fill="#004670" d="M 112.433594 671.78125 L 87.007812 671.78125 C 80.003906 671.78125 74.292969 677.492188 74.292969 684.496094 C 74.292969 691.496094 80.003906 697.207031 87.007812 697.207031 L 112.433594 697.207031 C 119.433594 697.207031 125.144531 691.496094 125.144531 684.496094 C 125.144531 677.492188 119.433594 671.78125 112.433594 671.78125 " fill-opacity="1" fill-rule="nonzero"/><path fill="#004670" d="M 531.945312 315.832031 C 531.945312 299.296875 542.621094 285.292969 557.371094 280.027344 L 557.371094 351.636719 C 542.621094 346.371094 531.945312 332.367188 531.945312 315.832031 Z M 608.21875 417.53125 C 608.21875 434.070312 597.542969 448.074219 582.792969 453.335938 L 582.792969 381.730469 C 597.542969 386.992188 608.21875 400.996094 608.21875 417.53125 Z M 582.792969 481.09375 L 582.792969 479.804688 C 611.796875 473.894531 633.644531 448.222656 633.644531 417.53125 C 633.644531 386.84375 611.796875 361.171875 582.792969 355.261719 L 582.792969 280.027344 C 597.542969 285.292969 608.21875 299.296875 608.21875 315.832031 C 608.21875 322.835938 613.929688 328.546875 620.933594 328.546875 C 627.933594 328.546875 633.644531 322.835938 633.644531 315.832031 C 633.644531 285.144531 611.796875 259.46875 582.792969 253.5625 L 582.792969 252.269531 C 582.792969 245.269531 577.085938 239.558594 570.082031 239.558594 C 563.082031 239.558594 557.371094 245.269531 557.371094 252.269531 L 557.371094 253.5625 C 528.371094 259.46875 506.519531 285.144531 506.519531 315.832031 C 506.519531 346.519531 528.371094 372.195312 557.371094 378.105469 L 557.371094 453.335938 C 542.621094 448.074219 531.945312 434.070312 531.945312 417.53125 C 531.945312 410.53125 526.234375 404.820312 519.230469 404.820312 C 512.230469 404.820312 506.519531 410.53125 506.519531 417.53125 C 506.519531 448.222656 528.371094 473.894531 557.371094 479.804688 L 557.371094 481.09375 C 557.371094 488.097656 563.082031 493.808594 570.082031 493.808594 C 577.085938 493.808594 582.792969 488.097656 582.792969 481.09375 " fill-opacity="1" fill-rule="nonzero"/></svg>