<svg xmlns="http://www.w3.org/2000/svg" xmlns:xlink="http://www.w3.org/1999/xlink" width="1080" zoomAndPan="magnify" viewBox="0 0 810 809.999993" height="1080" preserveAspectRatio="xMidYMid meet" version="1.0"><defs><clipPath id="id1"><path d="M 26 34.773438 L 605 34.773438 L 605 775.023438 L 26 775.023438 Z M 26 34.773438 " clip-rule="nonzero"/></clipPath></defs><rect x="-81" width="972" fill="#ffffff" y="-80.999999" height="971.999992" fill-opacity="1"/><rect x="-81" width="972" fill="#ffffff" y="-80.999999" height="971.999992" fill-opacity="1"/><rect x="-81" width="972" fill="#ffffff" y="-80.999999" height="971.999992" fill-opacity="1"/><g clip-path="url(#id1)"><path fill="#004670" d="M 592.417969 775.050781 L 38.019531 775.050781 C 31.496094 775.050781 26.203125 769.757812 26.203125 763.234375 L 26.203125 46.566406 C 26.203125 40.039062 31.496094 34.75 38.019531 34.75 L 490.4375 34.75 C 494.023438 34.75 497.238281 36.347656 499.402344 38.871094 L 600.75 140.292969 L 600.773438 140.269531 C 603.078125 142.574219 604.230469 145.597656 604.230469 148.621094 L 604.234375 148.621094 L 604.234375 383.667969 C 604.234375 387 602.855469 390.007812 600.636719 392.15625 L 521.898438 470.894531 L 495.40625 540.53125 L 565.144531 513.957031 L 584.0625 495.039062 L 584.058594 495.039062 C 588.675781 490.425781 596.15625 490.425781 600.773438 495.039062 C 603.078125 497.347656 604.234375 500.371094 604.234375 503.394531 L 604.234375 763.234375 C 604.234375 769.757812 598.941406 775.050781 592.414062 775.050781 Z M 49.835938 751.414062 L 580.601562 751.414062 L 580.601562 531.917969 L 580.308594 532.210938 C 579.128906 533.457031 577.652344 534.46875 575.9375 535.121094 L 575.933594 535.113281 L 479.695312 571.785156 C 476.972656 572.960938 473.804688 573.117188 470.8125 571.980469 C 464.710938 569.660156 461.648438 562.832031 463.96875 556.734375 L 463.980469 556.734375 L 500.542969 460.640625 C 501.101562 458.925781 502.058594 457.316406 503.417969 455.953125 L 503.421875 455.957031 L 580.601562 378.777344 L 580.601562 153.464844 L 485.589844 58.382812 L 49.835938 58.382812 Z M 49.835938 751.414062 " fill-opacity="1" fill-rule="nonzero"/></g><path fill="#004670" d="M 499.691406 39.15625 L 600.390625 139.929688 L 600.414062 139.910156 C 605.023438 144.523438 605.023438 152.007812 600.40625 156.617188 C 598.101562 158.921875 595.078125 160.074219 592.054688 160.074219 L 592.054688 160.078125 L 490.722656 160.078125 C 484.199219 160.078125 478.90625 154.785156 478.90625 148.261719 L 478.90625 46.851562 C 478.90625 40.324219 484.199219 35.035156 490.722656 35.035156 C 494.308594 35.035156 497.523438 36.632812 499.691406 39.15625 Z M 563.589844 136.445312 L 502.539062 75.347656 L 502.539062 136.445312 Z M 563.589844 136.445312 " fill-opacity="1" fill-rule="nonzero"/><path fill="#004670" d="M 178.253906 331.375 C 171.726562 331.375 166.4375 336.664062 166.4375 343.191406 C 166.4375 349.714844 171.726562 355.007812 178.253906 355.007812 L 452.179688 355.007812 C 458.707031 355.007812 463.996094 349.714844 463.996094 343.191406 C 463.996094 336.664062 458.707031 331.375 452.179688 331.375 Z M 178.253906 331.375 " fill-opacity="1" fill-rule="nonzero"/><path fill="#004670" d="M 178.253906 454.792969 C 171.726562 454.792969 166.4375 460.082031 166.4375 466.609375 C 166.4375 473.136719 171.726562 478.425781 178.253906 478.425781 L 452.179688 478.425781 C 458.707031 478.425781 463.996094 473.136719 463.996094 466.609375 C 463.996094 460.082031 458.707031 454.792969 452.179688 454.792969 Z M 178.253906 454.792969 " fill-opacity="1" fill-rule="nonzero"/><path fill="#004670" d="M 178.253906 578.210938 C 171.726562 578.210938 166.4375 583.503906 166.4375 590.027344 C 166.4375 596.554688 171.726562 601.84375 178.253906 601.84375 L 452.179688 601.84375 C 458.707031 601.84375 463.996094 596.554688 463.996094 590.027344 C 463.996094 583.503906 458.707031 578.210938 452.179688 578.210938 Z M 178.253906 578.210938 " fill-opacity="1" fill-rule="nonzero"/><path fill="#004670" d="M 719.21875 257.152344 L 778.9375 316.871094 L 778.941406 316.871094 C 783.554688 321.484375 783.554688 328.96875 778.941406 333.582031 L 778.796875 333.722656 L 580.085938 532.433594 L 580.085938 532.4375 C 578.726562 533.796875 577.117188 534.753906 575.40625 535.3125 L 479.214844 571.964844 L 479.21875 571.976562 C 473.125 574.300781 466.292969 571.242188 463.96875 565.144531 C 462.832031 562.15625 462.988281 558.992188 464.160156 556.269531 L 500.738281 460.113281 L 500.730469 460.109375 C 501.382812 458.394531 502.390625 456.917969 503.640625 455.734375 L 702.367188 257.007812 L 702.367188 257.003906 C 706.980469 252.390625 714.464844 252.390625 719.078125 257.003906 L 719.21875 257.148438 Z M 753.875 325.226562 L 710.722656 282.070312 L 521.898438 470.894531 L 495.40625 540.53125 L 565.144531 513.957031 Z M 753.875 325.226562 " fill-opacity="1" fill-rule="nonzero"/><path fill="#004670" d="M 520.128906 455.957031 C 515.515625 451.34375 508.03125 451.34375 503.421875 455.957031 C 498.808594 460.570312 498.808594 468.054688 503.421875 472.664062 L 563.28125 532.53125 C 567.894531 537.140625 575.378906 537.140625 579.992188 532.53125 C 584.601562 527.917969 584.601562 520.433594 579.992188 515.820312 Z M 520.128906 455.957031 " fill-opacity="1" fill-rule="nonzero"/><path fill="#004670" d="M 686.648438 289.433594 C 682.035156 284.824219 674.554688 284.824219 669.941406 289.433594 C 665.328125 294.046875 665.328125 301.53125 669.941406 306.144531 L 729.804688 366.007812 C 734.417969 370.621094 741.898438 370.621094 746.511719 366.007812 C 751.125 361.394531 751.125 353.910156 746.511719 349.300781 Z M 686.648438 289.433594 " fill-opacity="1" fill-rule="nonzero"/><path fill="#004670" d="M 228.46875 277.640625 C 256.894531 262.992188 279.308594 242.652344 295.933594 215.238281 L 295.933594 137.773438 C 282.027344 133.9375 268.65625 120.671875 264.78125 106.621094 L 192.152344 106.621094 C 187.992188 121.730469 176.105469 133.609375 161 137.773438 L 161 215.238281 C 177.636719 242.664062 200.03125 262.988281 228.46875 277.640625 Z M 234.542969 300.917969 C 231.253906 302.882812 227.070312 303.21875 223.355469 301.433594 L 223.375 301.390625 C 187.472656 284.152344 159.679688 259.488281 139.4375 225.101562 C 138.132812 223.203125 137.367188 220.902344 137.367188 218.425781 L 137.367188 127.546875 C 137.367188 121.023438 142.660156 115.730469 149.183594 115.730469 C 160.777344 115.730469 170.109375 106.40625 170.109375 94.804688 C 170.109375 88.28125 175.402344 82.988281 181.929688 82.988281 L 275.007812 82.988281 C 281.53125 82.988281 286.824219 88.28125 286.824219 94.804688 C 286.824219 106.398438 296.148438 115.730469 307.75 115.730469 C 314.277344 115.730469 319.566406 121.023438 319.566406 127.546875 L 319.566406 218.425781 C 319.566406 220.449219 319.050781 222.503906 317.957031 224.378906 L 317.933594 224.363281 C 297.855469 258.769531 270.273438 283.558594 234.542969 300.917969 Z M 234.542969 300.917969 " fill-opacity="1" fill-rule="nonzero"/><path fill="#004670" d="M 205.371094 187.007812 C 200.757812 182.394531 193.273438 182.394531 188.664062 187.007812 C 184.050781 191.621094 184.050781 199.105469 188.664062 203.714844 L 207.917969 222.972656 C 212.53125 227.585938 220.011719 227.585938 224.628906 222.972656 L 224.769531 222.828125 L 268.269531 179.324219 C 272.882812 174.714844 272.882812 167.230469 268.269531 162.617188 C 263.660156 158.003906 256.175781 158.003906 251.5625 162.617188 L 216.273438 197.910156 Z M 205.371094 187.007812 " fill-opacity="1" fill-rule="nonzero"/></svg>